<svg width="120" height="72" viewBox="0 0 120 72" fill="none" xmlns="http://www.w3.org/2000/svg">
<path d="M9.30762 33.5626L13.3051 14.7676H31.6426L30.1426 21.9376H31.7251L29.2501 33.5626H9.30762ZM17.2501 21.9376H26.2501L27.1876 17.5351H18.1501L17.2501 21.9376ZM15.3301 30.7951H24.3901L25.6876 24.7051H16.6201L15.3301 30.7951Z" fill="#0E5978"/>
<path d="M38.88 33.5626L42.8775 14.7676H37.4475L33.45 33.5626H38.88Z" fill="#262626"/>
<path fill-rule="evenodd" clip-rule="evenodd" d="M71.0449 40.7976C73.0426 38.7999 75.7521 37.6776 78.5774 37.6776C83.1847 37.6776 86.4153 40.3425 88.398 42.7725C89.1401 43.682 89.7322 44.5868 90.1836 45.3638C90.635 44.5868 91.2271 43.682 91.9692 42.7725C93.3458 41.0854 95.3237 39.2852 97.9463 38.342L96.3149 31.2676L90.9149 32.9776L89.2574 30.3601H89.2499L98.5124 27.4276L100.879 37.7128C101.177 37.6896 101.48 37.6776 101.79 37.6776C104.615 37.6776 107.325 38.7999 109.322 40.7976C111.32 42.7954 112.442 45.5049 112.442 48.3301C112.442 51.1553 111.32 53.8648 109.322 55.8625C107.325 57.8603 104.615 58.9826 101.79 58.9826C97.21 58.9826 93.9802 56.3147 91.994 53.8904C91.2411 52.9715 90.6404 52.0576 90.1836 51.2755C89.7268 52.0576 89.1261 52.9715 88.3732 53.8904C86.387 56.3147 83.1572 58.9826 78.5774 58.9826C75.7521 58.9826 73.0426 57.8603 71.0449 55.8625C69.0472 53.8648 67.9249 51.1553 67.9249 48.3301C67.9249 45.5049 69.0472 42.7954 71.0449 40.7976ZM98.7413 41.7896L100.327 48.6676L103.245 47.9926L101.677 41.1784C101.714 41.1778 101.752 41.1776 101.79 41.1776C103.687 41.1776 105.506 41.9311 106.847 43.2725C108.189 44.6139 108.942 46.4331 108.942 48.3301C108.942 50.227 108.189 52.0463 106.847 53.3877C105.506 54.729 103.687 55.4826 101.79 55.4826C98.6972 55.4826 96.362 53.6992 94.7014 51.6723C93.8813 50.6714 93.2706 49.6617 92.8649 48.8992C92.7507 48.6845 92.6537 48.4911 92.5736 48.3251C92.6523 48.1599 92.7477 47.9676 92.8601 47.7542C93.2609 46.9928 93.8656 45.9846 94.6811 44.9852C95.7417 43.6852 97.0858 42.4825 98.7413 41.7896ZM87.7936 48.3251C87.7149 48.1599 87.6195 47.9676 87.5071 47.7542C87.1063 46.9928 86.5016 45.9846 85.6861 44.9852C84.037 42.9639 81.7025 41.1776 78.5774 41.1776C76.6804 41.1776 74.8611 41.9311 73.5198 43.2725C72.1784 44.6139 71.4249 46.4331 71.4249 48.3301C71.4249 50.227 72.1784 52.0463 73.5198 53.3877C74.8611 54.729 76.6804 55.4826 78.5774 55.4826C81.67 55.4826 84.0052 53.6992 85.6659 51.6723C86.4859 50.6714 87.0966 49.6617 87.5023 48.8992C87.6165 48.6845 87.7136 48.4911 87.7936 48.3251Z" fill="#262626"/>
<path d="M63.9449 33.5626H57.9449L52.8449 25.4401H50.2499L48.5249 33.5626H43.1024L47.0924 14.7676H52.4999L50.8049 22.6726H53.4374L61.7999 14.7676H67.9424L58.0874 24.0001L63.9449 33.5626Z" fill="#262626"/>
<path d="M66.4949 33.5626H86.8349L85.0799 30.8026H72.5099L73.6199 25.5526H87.3599L87.9524 22.7851H74.2049L75.3299 17.5351H87.9974L90.8849 14.7676H70.4999L66.4949 33.5626Z" fill="#262626"/>
<path d="M13.5524 54.8026H9.30737L12.5024 39.8026H28.2074L25.9049 42.0001H16.2824L15.5324 45.4576H26.4074L24.0599 47.7076H15.0599L13.5524 54.8026Z" fill="#262626"/>
<path d="M26.9999 54.8026H43.3274L46.4999 39.7501H42.2774L39.5549 52.5901H31.7999L34.4999 39.8026H30.1949L26.9999 54.8026Z" fill="#262626"/>
<path d="M52.05 46.6126L50.31 54.8026H45.9675L49.1625 39.8026L59.4 47.8876L61.125 39.7501H65.4L62.205 54.7501L52.05 46.6126Z" fill="#262626"/>
</svg>
